<?xml version="1.0" encoding="utf-8"?>
<!-- Generator: Adobe Illustrator 24.1.2, SVG Export Plug-In . SVG Version: 6.00 Build 0)  -->
<svg version="1.1" id="Layer_1" xmlns="http://www.w3.org/2000/svg" xmlns:xlink="http://www.w3.org/1999/xlink" x="0px" y="0px"
	 viewBox="0 0 767 1539" style="enable-background:new 0 0 767 1539;" xml:space="preserve">
<style type="text/css">
	.st0{fill-rule:evenodd;clip-rule:evenodd;fill:#313131;}
	.st1{fill-rule:evenodd;clip-rule:evenodd;fill:#191919;}
	.st2{fill:#015FFC;}
	.st3{fill:#FFFFFF;}
	.st4{fill:#015FFE;}
</style>
<g transform="translate(16 8)">
	<path class="st0" d="M665.7,1513.3H79.6c-39.7,0-71.8-32.2-71.8-71.8V75.1c0-39.7,32.2-71.8,71.8-71.8h586.1
		c39.7,0,71.8,32.2,71.8,71.8v1366.4C737.5,1481.1,705.3,1513.3,665.7,1513.3z"/>
	<path class="st1" d="M100.1,1477.1h545c32.6,0,59-26.4,59-59V98.4c0-32.6-26.4-59-59-59h-545c-32.6,0-59,26.4-59,59v1319.7
		C41.1,1450.7,67.6,1477.1,100.1,1477.1z"/>
</g>
<path class="st0" d="M540.4,67.6H235.8c-10.9,0-19.7-8.8-19.7-19.7v0c0-10.9,8.8-19.7,19.7-19.7h304.6c10.9,0,19.7,8.8,19.7,19.7v0
	C560.1,58.8,551.2,67.6,540.4,67.6z"/>
<path class="st0" d="M31,286.9v82c0,4.1-3.3,7.4-7.4,7.4h0c-4.1,0-7.4-3.3-7.4-7.4v-82c0-4.1,3.3-7.4,7.4-7.4h0
	C27.6,279.4,31,282.7,31,286.9z"/>
<path class="st0" d="M33,192.7V220c0,4.1-3.3,7.4-7.4,7.4h0c-4.1,0-7.4-3.3-7.4-7.4v-27.3c0-4.1,3.3-7.4,7.4-7.4h0
	C29.6,185.3,33,188.6,33,192.7z"/>
<path class="st0" d="M31,392.9v82c0,4.1-3.3,7.4-7.4,7.4h0c-4.1,0-7.4-3.3-7.4-7.4v-82c0-4.1,3.3-7.4,7.4-7.4h0
	C27.6,385.4,31,388.7,31,392.9z"/>
<path class="st0" d="M760.4,296.1v160.5c0,4.1-3.3,7.4-7.4,7.4l0,0c-4.1,0-7.4-3.3-7.4-7.4V296.1c0-4.1,3.3-7.4,7.4-7.4l0,0
	C757,288.7,760.4,292,760.4,296.1z"/>
<g>
	<path class="st2" d="M88.2,155.5L88.2,155.5c-1-1-0.9-2.6,0.1-3.6l14-13.1c1-1,2.6-0.9,3.6,0.1v0c1,1,0.9,2.6-0.1,3.6l-14,13.1
		C90.7,156.5,89.2,156.5,88.2,155.5z"/>
	<path class="st2" d="M88.3,151.9L88.3,151.9c1-1,2.6-0.9,3.6,0.1l13.1,14c1,1,0.9,2.6-0.1,3.6l0,0c-1,1-2.6,0.9-3.6-0.1l-13.1-14
		C87.2,154.5,87.3,152.9,88.3,151.9z"/>
</g>
<g>
	<path class="st3" d="M225.4,159.3h-7.5l-1.7,5.3h-3.8l7.2-20.4h4.1l7.2,20.4h-3.9L225.4,159.3z M218.7,156.5h5.8l-2.8-8.7h-0.1
		L218.7,156.5z"/>
	<path class="st3" d="M232.8,149.5h3.4v2.6h0.1c0.8-1.8,2.4-2.9,4.7-2.9c3.3,0,5.2,2.1,5.2,5.6v9.7h-3.5v-9c0-2.1-1-3.3-3-3.3
		c-2,0-3.3,1.5-3.3,3.6v8.7h-3.5V149.5z"/>
	<path class="st3" d="M248.3,157c0-4.7,2.4-7.7,6.2-7.7c2.2,0,3.9,1.1,4.6,2.8h0.1v-7.9h3.5v20.4h-3.5V162h-0.1
		c-0.8,1.7-2.5,2.8-4.7,2.8C250.8,164.8,248.3,161.8,248.3,157z M251.9,157c0,3,1.4,4.9,3.7,4.9c2.2,0,3.7-1.9,3.7-4.9
		c0-2.9-1.5-4.9-3.7-4.9C253.4,152.2,251.9,154.1,251.9,157z"/>
	<path class="st3" d="M265.8,149.5h3.4v2.6h0.1c0.5-1.8,1.8-2.9,3.6-2.9c0.5,0,0.8,0.1,1.1,0.1v3.2c-0.3-0.1-0.8-0.2-1.4-0.2
		c-2,0-3.2,1.3-3.2,3.4v8.7h-3.5V149.5z"/>
	<path class="st3" d="M288.4,160.1c-0.5,2.8-3.1,4.8-6.6,4.8c-4.5,0-7.2-3-7.2-7.7c0-4.7,2.7-7.9,7.1-7.9c4.3,0,6.9,3,6.9,7.5v1.1
		h-10.5v0.2c0,2.4,1.5,4,3.8,4c1.6,0,2.9-0.8,3.3-2.1H288.4z M278.1,155.6h7c-0.1-2.1-1.4-3.6-3.5-3.6
		C279.7,152,278.2,153.5,278.1,155.6z"/>
	<path class="st3" d="M307.1,164.6h-3.7l-3-11h-0.1l-2.9,11h-3.7l-4.1-15h3.5l2.5,11.5h0.1l2.9-11.5h3.4l2.9,11.5h0.1l2.5-11.5h3.5
		L307.1,164.6z"/>
	<path class="st3" d="M319.1,164.6v-20.4h8.5c3.7,0,6.1,2,6.1,5.1c0,2.2-1.6,4.1-3.7,4.4v0.1c2.8,0.3,4.7,2.3,4.7,5
		c0,3.6-2.6,5.8-7,5.8H319.1z M322.7,152.7h3.3c2.5,0,4-1.1,4-3c0-1.8-1.2-2.8-3.4-2.8h-3.9V152.7z M326.8,161.7
		c2.7,0,4.1-1.1,4.1-3.2c0-2.1-1.5-3.2-4.3-3.2h-3.9v6.4H326.8z"/>
	<path class="st3" d="M336.3,157c0-4.8,2.9-7.8,7.3-7.8s7.3,3,7.3,7.8c0,4.9-2.9,7.8-7.3,7.8S336.3,161.9,336.3,157z M347.2,157
		c0-3.2-1.4-5-3.7-5c-2.2,0-3.7,1.8-3.7,5c0,3.2,1.4,5,3.7,5S347.2,160.2,347.2,157z"/>
	<path class="st3" d="M358.8,149.2c3.7,0,6,2,6.1,4.8h-3.3c-0.1-1.4-1.1-2.2-2.8-2.2c-1.6,0-2.6,0.7-2.6,1.8c0,0.9,0.6,1.5,2.2,1.8
		l2.5,0.6c3.1,0.7,4.3,1.9,4.3,4.1c0,2.8-2.6,4.7-6.3,4.7c-3.9,0-6.2-1.9-6.5-4.8h3.5c0.3,1.5,1.3,2.2,3.1,2.2
		c1.7,0,2.8-0.7,2.8-1.8c0-0.9-0.5-1.4-2.1-1.8l-2.5-0.6c-2.9-0.6-4.3-2.1-4.3-4.3C352.8,151.1,355.2,149.2,358.8,149.2z"/>
	<path class="st3" d="M376.8,149.5h4.1l-6,6.5l6.3,8.6H377l-4.7-6.4l-1.2,1.2v5.2h-3.5v-20.4h3.5v11.7h0L376.8,149.5z"/>
	<path class="st3" d="M381.2,157c0-4.8,2.9-7.8,7.3-7.8s7.3,3,7.3,7.8c0,4.9-2.9,7.8-7.3,7.8S381.2,161.9,381.2,157z M392.1,157
		c0-3.2-1.4-5-3.7-5c-2.2,0-3.7,1.8-3.7,5c0,3.2,1.4,5,3.7,5S392.1,160.2,392.1,157z"/>
	<path class="st3" d="M405.5,164.6h-3.9l-5.3-15h3.8l3.5,11.7h0.1l3.5-11.7h3.7L405.5,164.6z"/>
	<path class="st3" d="M412.3,145.4c0-1.1,0.9-1.9,1.9-1.9s1.9,0.8,1.9,1.9c0,1-0.8,1.9-1.9,1.9S412.3,146.4,412.3,145.4z
		 M412.5,149.5h3.5v15h-3.5V149.5z"/>
	<path class="st3" d="M428.9,154.9c-0.3-1.6-1.4-2.8-3.3-2.8c-2.2,0-3.7,1.9-3.7,5c0,3.1,1.4,5,3.7,5c1.8,0,2.9-1,3.3-2.7h3.3
		c-0.3,3.4-2.9,5.6-6.6,5.6c-4.4,0-7.2-2.9-7.2-7.8c0-4.8,2.8-7.8,7.2-7.8c4,0,6.4,2.5,6.7,5.7H428.9z"/>
	<path class="st3" d="M434.4,144.1h3.5v8h0.1c0.8-1.8,2.5-2.9,4.7-2.9c3.3,0,5.3,2.2,5.3,5.6v9.7h-3.5v-8.9c0-2.1-1-3.4-3.1-3.4
		c-2.1,0-3.4,1.5-3.4,3.7v8.6h-3.5V144.1z"/>
</g>
<g id="_x34_mAxsU.tif">
	
		<image style="overflow:visible;" width="156" height="156" id="Layer_0" xlink:href="436204EC66DC86A7.png"  transform="matrix(0.1849 0 0 0.1849 456.704 139.7304)">
	</image>
</g>
<g id="_x32_orlWF.tif">
	
		<image style="overflow:visible;" width="160" height="157" id="Layer_0_1_" xlink:href="436204EC66DC86A0.png"  transform="matrix(0.1837 0 0 0.1837 492.4252 139.7304)">
	</image>
</g>
<g id="ZCZPRG.tif">
	
		<image style="overflow:visible;" width="142" height="102" id="Layer_0_2_" xlink:href="436204EC66DC86A1.png"  transform="matrix(0.2049 0 0 0.2049 565.9247 143.7043)">
	</image>
</g>
<g id="pMrlaU.tif">
	
		<image style="overflow:visible;" width="160" height="138" id="Layer_0_3_" xlink:href="436204EC66DC86A2.png"  transform="matrix(0.1847 0 0 0.1847 528.3748 141.4118)">
	</image>
</g>
<a xlink:href="https://google.com/" >
	<g>
		<g>
			<g>
				<path class="st4" d="M687.9,165l-4.1-2.7l-3.6-2.4c-0.7-0.5-1.6-0.3-2.2,0.4l-2.2,2.9c-0.5,0.6-1.3,0.8-2,0.4
					c-1.5-0.8-3.3-1.6-7.3-5.6c-4-4-4.8-5.8-5.6-7.3c-0.4-0.7-0.2-1.6,0.4-2l2.9-2.2c0.7-0.5,0.8-1.5,0.4-2.2l-2.3-3.5l-2.8-4.2
					c-0.5-0.7-1.4-0.9-2.2-0.5l-3.2,1.9c-0.9,0.5-1.5,1.3-1.8,2.3c-0.9,3.2-1.1,10.3,10.3,21.7s18.4,11.2,21.7,10.3
					c1-0.3,1.8-0.9,2.3-1.8l1.9-3.2C688.9,166.4,688.6,165.5,687.9,165z"/>
			</g>
		</g>
	</g>
</a>
<g>
	<defs>
		<circle id="SVGID_1_" cx="166.1" cy="154" r="29.1"/>
	</defs>
	<clipPath id="SVGID_2_">
		<use xlink:href="#SVGID_1_"  style="overflow:visible;"/>
	</clipPath>
	<g transform="matrix(1 0 0 1 0 -7.629395e-06)" style="clip-path:url(#SVGID_2_);">
		
			<image style="overflow:visible;" width="1066" height="1190" xlink:href="pp.png"  transform="matrix(5.926742e-02 0 0 5.926742e-02 134.5241 121.5424)">
		</image>
	</g>
</g>
</svg>
