<?xml version="1.0" encoding="utf-8"?>
<!-- Generator: Adobe Illustrator 24.1.2, SVG Export Plug-In . SVG Version: 6.00 Build 0)  -->
<svg version="1.1" id="Layer_1" xmlns="http://www.w3.org/2000/svg" xmlns:xlink="http://www.w3.org/1999/xlink" x="0px" y="0px"
	 viewBox="0 0 767 1539" style="enable-background:new 0 0 767 1539;" xml:space="preserve">
<style type="text/css">
	.st0{fill-rule:evenodd;clip-rule:evenodd;fill:#313131;}
	.st1{fill-rule:evenodd;clip-rule:evenodd;fill:#191919;}
	.st2{fill:#005BFF;}
	.st3{fill:#FFFFFF;}
</style>
<g transform="translate(16 8)">
	<path class="st0" d="M660.7,1516.3H74.7c-39.7,0-71.8-32.2-71.8-71.8V78.1C2.8,38.4,35,6.3,74.7,6.3h586.1
		c39.7,0,71.8,32.2,71.8,71.8v1366.4C732.5,1484.2,700.4,1516.3,660.7,1516.3z"/>
	<path class="st1" d="M95.2,1480.1h545c32.6,0,59-26.4,59-59V101.4c0-32.6-26.4-59-59-59h-545c-32.6,0-59,26.4-59,59v1319.7
		C36.2,1453.7,62.6,1480.1,95.2,1480.1z"/>
</g>
<path class="st0" d="M535.4,70.7H230.8c-10.9,0-19.7-8.8-19.7-19.7v0c0-10.9,8.8-19.7,19.7-19.7h304.6c10.9,0,19.7,8.8,19.7,19.7v0
	C555.1,61.9,546.3,70.7,535.4,70.7z"/>
<path class="st0" d="M26,289.9v82c0,4.1-3.3,7.4-7.4,7.4h0c-4.1,0-7.4-3.3-7.4-7.4v-82c0-4.1,3.3-7.4,7.4-7.4h0
	C22.7,282.4,26,285.8,26,289.9z"/>
<path class="st0" d="M28,195.8V223c0,4.1-3.3,7.4-7.4,7.4h0c-4.1,0-7.4-3.3-7.4-7.4v-27.3c0-4.1,3.3-7.4,7.4-7.4h0
	C24.7,188.3,28,191.7,28,195.8z"/>
<path class="st0" d="M26,395.9v82c0,4.1-3.3,7.4-7.4,7.4h0c-4.1,0-7.4-3.3-7.4-7.4v-82c0-4.1,3.3-7.4,7.4-7.4h0
	C22.7,388.4,26,391.8,26,395.9z"/>
<path class="st0" d="M755.4,299.1v160.5c0,4.1-3.3,7.4-7.4,7.4h0c-4.1,0-7.4-3.3-7.4-7.4V299.1c0-4.1,3.3-7.4,7.4-7.4h0
	C752.1,291.7,755.4,295,755.4,299.1z"/>
<g>
	<path class="st2" d="M83.2,158.5L83.2,158.5c-1-1-0.9-2.6,0.1-3.6l14-13.1c1-1,2.6-0.9,3.6,0.1l0,0c1,1,0.9,2.6-0.1,3.6l-14,13.1
		C85.8,159.5,84.2,159.5,83.2,158.5z"/>
	<path class="st2" d="M83.3,154.9L83.3,154.9c1-1,2.6-0.9,3.6,0.1l13.1,14c1,1,0.9,2.6-0.1,3.6l0,0c-1,1-2.6,0.9-3.6-0.1l-13.1-14
		C82.3,157.5,82.3,155.9,83.3,154.9z"/>
</g>
<g>
	<path class="st3" d="M220.4,162.3h-7.5l-1.7,5.3h-3.8l7.2-20.4h4.1l7.2,20.4h-3.9L220.4,162.3z M213.7,159.5h5.8l-2.8-8.7h-0.1
		L213.7,159.5z"/>
	<path class="st3" d="M227.8,152.6h3.4v2.6h0.1c0.8-1.8,2.4-2.9,4.7-2.9c3.3,0,5.2,2.1,5.2,5.6v9.7h-3.5v-9c0-2.1-1-3.3-3-3.3
		c-2,0-3.3,1.5-3.3,3.6v8.7h-3.5V152.6z"/>
	<path class="st3" d="M243.4,160.1c0-4.7,2.4-7.7,6.2-7.7c2.2,0,3.9,1.1,4.6,2.8h0.1v-7.9h3.5v20.4h-3.5V165h-0.1
		c-0.8,1.7-2.5,2.8-4.7,2.8C245.8,167.8,243.4,164.8,243.4,160.1z M247,160.1c0,3,1.4,4.9,3.7,4.9c2.2,0,3.7-1.9,3.7-4.9
		c0-2.9-1.5-4.9-3.7-4.9C248.4,155.2,247,157.1,247,160.1z"/>
	<path class="st3" d="M260.8,152.6h3.4v2.6h0.1c0.5-1.8,1.8-2.9,3.6-2.9c0.5,0,0.8,0.1,1.1,0.1v3.2c-0.3-0.1-0.8-0.2-1.4-0.2
		c-2,0-3.2,1.3-3.2,3.4v8.7h-3.5V152.6z"/>
	<path class="st3" d="M283.5,163.1c-0.5,2.8-3.1,4.8-6.6,4.8c-4.5,0-7.2-3-7.2-7.7c0-4.7,2.7-7.9,7.1-7.9c4.3,0,6.9,3,6.9,7.5v1.1
		h-10.5v0.2c0,2.4,1.5,4,3.8,4c1.6,0,2.9-0.8,3.3-2.1H283.5z M273.1,158.6h7c-0.1-2.1-1.4-3.6-3.5-3.6
		C274.7,155,273.3,156.5,273.1,158.6z"/>
	<path class="st3" d="M302.1,167.6h-3.7l-3-11h-0.1l-2.9,11h-3.7l-4.1-15h3.5l2.5,11.5h0.1l2.9-11.5h3.4l2.9,11.5h0.1l2.5-11.5h3.5
		L302.1,167.6z"/>
	<path class="st3" d="M314.1,167.6v-20.4h8.5c3.7,0,6.1,2,6.1,5.1c0,2.2-1.6,4.1-3.7,4.4v0.1c2.8,0.3,4.7,2.3,4.7,5
		c0,3.6-2.6,5.8-7,5.8H314.1z M317.8,155.8h3.3c2.5,0,4-1.1,4-3c0-1.8-1.2-2.8-3.4-2.8h-3.9V155.8z M321.8,164.7
		c2.7,0,4.1-1.1,4.1-3.2c0-2.1-1.5-3.2-4.3-3.2h-3.9v6.4H321.8z"/>
	<path class="st3" d="M331.3,160.1c0-4.8,2.9-7.8,7.3-7.8s7.3,3,7.3,7.8c0,4.9-2.9,7.8-7.3,7.8S331.3,164.9,331.3,160.1z
		 M342.3,160.1c0-3.2-1.4-5-3.7-5c-2.2,0-3.7,1.8-3.7,5c0,3.2,1.4,5,3.7,5S342.3,163.3,342.3,160.1z"/>
	<path class="st3" d="M353.9,152.3c3.7,0,6,2,6.1,4.8h-3.3c-0.1-1.4-1.1-2.2-2.8-2.2c-1.6,0-2.6,0.7-2.6,1.8c0,0.9,0.6,1.5,2.2,1.8
		l2.5,0.6c3.1,0.7,4.3,1.9,4.3,4.1c0,2.8-2.6,4.7-6.3,4.7c-3.9,0-6.2-1.9-6.5-4.8h3.5c0.3,1.5,1.3,2.2,3.1,2.2
		c1.7,0,2.8-0.7,2.8-1.8c0-0.9-0.5-1.4-2.1-1.8l-2.5-0.6c-2.9-0.6-4.3-2.1-4.3-4.3C347.8,154.1,350.2,152.3,353.9,152.3z"/>
	<path class="st3" d="M371.8,152.6h4.1l-6,6.5l6.3,8.6h-4.1l-4.7-6.4l-1.2,1.2v5.2h-3.5v-20.4h3.5v11.7h0L371.8,152.6z"/>
	<path class="st3" d="M376.2,160.1c0-4.8,2.9-7.8,7.3-7.8s7.3,3,7.3,7.8c0,4.9-2.9,7.8-7.3,7.8S376.2,164.9,376.2,160.1z
		 M387.2,160.1c0-3.2-1.4-5-3.7-5c-2.2,0-3.7,1.8-3.7,5c0,3.2,1.4,5,3.7,5S387.2,163.3,387.2,160.1z"/>
	<path class="st3" d="M400.6,167.6h-3.9l-5.3-15h3.8l3.5,11.7h0.1l3.5-11.7h3.7L400.6,167.6z"/>
	<path class="st3" d="M407.4,148.4c0-1.1,0.9-1.9,1.9-1.9s1.9,0.8,1.9,1.9c0,1-0.8,1.9-1.9,1.9S407.4,149.4,407.4,148.4z
		 M407.5,152.6h3.5v15h-3.5V152.6z"/>
	<path class="st3" d="M423.9,157.9c-0.3-1.6-1.4-2.8-3.3-2.8c-2.2,0-3.7,1.9-3.7,5c0,3.1,1.4,5,3.7,5c1.8,0,2.9-1,3.3-2.7h3.3
		c-0.3,3.4-2.9,5.6-6.6,5.6c-4.4,0-7.2-2.9-7.2-7.8c0-4.8,2.8-7.8,7.2-7.8c4,0,6.4,2.5,6.7,5.7H423.9z"/>
	<path class="st3" d="M429.5,147.1h3.5v8h0.1c0.8-1.8,2.5-2.9,4.7-2.9c3.3,0,5.3,2.2,5.3,5.6v9.7h-3.5v-8.9c0-2.1-1-3.4-3.1-3.4
		c-2.1,0-3.4,1.5-3.4,3.7v8.6h-3.5V147.1z"/>
</g>
<g id="_x34_mAxsU.tif">
	
		<image style="overflow:visible;" width="156" height="156" id="Layer_0_6_" xlink:href="7B5280167D9B19DD.png"  transform="matrix(0.1849 0 0 0.1849 451.753 142.7538)">
	</image>
</g>
<g id="_x32_orlWF.tif">
	
		<image style="overflow:visible;" width="160" height="157" id="Layer_0_2_" xlink:href="7B5280167D9B19D4.png"  transform="matrix(0.1837 0 0 0.1837 487.4742 142.7538)">
	</image>
</g>
<g id="ZCZPRG.tif">
	
		<image style="overflow:visible;" width="142" height="102" id="Layer_0_3_" xlink:href="7B5280167D9B19D7.png"  transform="matrix(0.2049 0 0 0.2049 560.9736 146.7277)">
	</image>
</g>
<g id="pMrlaU.tif">
	
		<image style="overflow:visible;" width="160" height="138" id="Layer_0_1_" xlink:href="7B5280167D9B19D2.png"  transform="matrix(0.1847 0 0 0.1847 523.4237 144.4352)">
	</image>
</g>
<a xlink:href="https://google.com/" >
	<g>
		<g>
			<g>
				<path class="st2" d="M683,168l-4.1-2.7l-3.6-2.4c-0.7-0.5-1.6-0.3-2.2,0.4l-2.2,2.9c-0.5,0.6-1.3,0.8-2,0.4
					c-1.5-0.8-3.3-1.6-7.3-5.6c-4-4-4.8-5.8-5.6-7.3c-0.4-0.7-0.2-1.6,0.4-2l2.9-2.2c0.7-0.5,0.8-1.5,0.4-2.2l-2.3-3.5l-2.8-4.2
					c-0.5-0.7-1.4-0.9-2.2-0.5l-3.2,1.9c-0.9,0.5-1.5,1.3-1.8,2.3c-0.9,3.2-1.1,10.3,10.3,21.7c11.4,11.4,18.4,11.2,21.7,10.3
					c1-0.3,1.8-0.9,2.3-1.8l1.9-3.2C683.9,169.5,683.7,168.5,683,168z"/>
			</g>
		</g>
	</g>
</a>
<g>
	<defs>
		<circle id="SVGID_1_" cx="161.3" cy="157.4" r="29.3"/>
	</defs>
	<clipPath id="SVGID_2_">
		<use xlink:href="#SVGID_1_"  style="overflow:visible;"/>
	</clipPath>
	<g style="clip-path:url(#SVGID_2_);">
		
			<image style="overflow:visible;" width="374" height="417" xlink:href="7B5280167D9B19DA.jpg"  transform="matrix(0.1687 0 0 0.1687 129.7366 124.3077)">
		</image>
	</g>
</g>
</svg>
